<svg xmlns="http://www.w3.org/2000/svg" width="256" height="256"><path fill="#1976D2" fill-opacity=".016" fill-rule="evenodd" d="M0 128.004v128.004l128.25-.254 128.25-.254.254-127.75L257.008 0H0zm.485.496c0 70.4.119 99.053.265 63.672s.146-92.98 0-128S.485 58.1.485 128.5"/><path fill="#1976D2" fill-opacity=".251" fill-rule="evenodd" d="M.667 81.667C.3 82.033 0 84.457 0 87.053v4.72l4.283.642c5.8.87 10.04 3.639 12.047 7.868 1.396 2.943 1.67 6.983 1.67 24.658 0 23.817.458 25.742 7.618 32.029 10.512 9.23 23.95 7.721 30.882-3.467 2.985-4.819 3.002-4.929 3.349-22.166.388-19.291-.025-20.484-5.69-16.45-4.993 3.555-6.159 7.505-6.159 20.868 0 11.302-.134 12.097-2.452 14.599-3.091 3.335-10.014 3.707-13.687.737-2.338-1.891-2.366-2.148-2.893-26.75-.601-28.097-1.019-29.805-8.938-36.583-5.475-4.687-17.108-8.346-19.363-6.091m63.665 1.184c-10.864 3.755-16.708 11.541-16.131 21.492l.299 5.157 1.887-3.5c2.7-5.008 7.46-10.848 9.91-12.159 1.481-.793 1.059.094-1.43 3.002-7.64 8.925-13.663 25.219-6.325 17.111 1.018-1.126 4.497-3.457 7.73-5.18C69.098 104.07 74 95.884 74 85.851c0-4.374-.221-4.848-2.25-4.818-1.237.018-4.575.836-7.418 1.818M47.5 86.408c-1.65.731-4.26 2.513-5.801 3.96-5.388 5.061-5.859 7.746-6.194 35.324L35.198 151h2.727c1.557 0 3.659-.993 4.901-2.314 2.103-2.239 2.175-3.08 2.196-25.75.02-21.411.198-23.825 2.059-27.936 1.12-2.475 3.22-5.737 4.665-7.25 2.363-2.473 2.433-2.746.691-2.711-1.065.022-3.287.638-4.937 1.369M.024 121.25c.026 24.573.526 28.216 4.692 34.176 5.887 8.423 18.669 13.655 29.232 11.966 4.342-.694 5.573-2.392 1.734-2.392-7.859 0-18.06-6.253-20.985-12.864-.715-1.617-1.365-11.267-1.681-24.97l-.516-22.335-3.266-2.915C7.173 100.076 4.867 99 2.984 99H0zM70 137.441v23.65l6.75-.295 6.75-.296.295-6.135.294-6.136 8.706-.724c10.544-.877 15.218-2.616 19.192-7.143 2.583-2.942 3.013-4.23 3.013-9.029 0-7.247-2.54-11.439-8.788-14.5-4.185-2.051-6.474-2.351-20.462-2.676L70 113.79zm49.232-.191.268 23.25 21.75.27 21.75.269V152h-31v-5c0-3.266.434-5.044 1.25-5.127.688-.069 6.762-.022 13.5.104l12.25.231V133h-27v-10h31v-9h-44.037zm62.268-22.377c-10.678 2.82-15.875 10.634-12.023 18.082 1.672 3.235 9.929 8.014 13.88 8.035 1.021.006 4.986.765 8.81 1.688 8.258 1.993 10.556 4.509 6.855 7.505-3.075 2.491-13.684 2.398-21.022-.183-7.104-2.499-7.462-2.477-8.839.547-1.951 4.28-1.376 5.225 4.589 7.551 8.249 3.216 24.93 3.35 30.75.247 5.488-2.925 7.59-5.517 8.124-10.017.95-8.003-3.014-11.269-18.461-15.209-6.235-1.591-11.792-3.348-12.349-3.905-1.652-1.652.114-5.153 3.003-5.952 4.098-1.135 13.194-.569 17.89 1.112l4.206 1.507 1.544-3.094c2.207-4.425 1.952-5.44-1.707-6.792-3.946-1.459-21.091-2.22-25.25-1.122m38.167-.206c-.367.366-.667 9.591-.667 20.5 0 15.209.291 19.829 1.25 19.816 1.898-.027 13.75-9.137 13.75-10.57 0-.69-1.35-1.551-3-1.913s-3-.974-3-1.36 1.35-1.211 3-1.834l3-1.132V114h-6.833c-3.759 0-7.134.3-7.5.667M84 130.5v7.5h7.311c8.722 0 11.689-1.895 11.689-7.466 0-5.304-3.592-7.534-12.135-7.534H84zm160.204 5.708c-5.612 2.241-10.204 4.412-10.204 4.825 0 .412 1.125 1.033 2.5 1.378s2.5 1.032 2.5 1.527c0 1.864-11.835 10.303-20.5 14.618-4.95 2.465-13.5 5.693-19 7.173-9.571 2.575-11.072 2.692-35 2.731-28.006.045-36.12-1.092-57.804-8.102-11.501-3.718-14.97-4.007-6.976-.582 17.003 7.287 39.774 12.607 61.727 14.421 24.931 2.06 49.605-2.109 69.17-11.688 5.014-2.455 11.446-6.558 14.294-9.119l5.178-4.655 2.27 2.132c1.248 1.173 2.578 2.133 2.955 2.133.967 0 .859-19.775-.11-20.374-.438-.27-5.388 1.341-11 3.582"/><path fill="#1976D2" fill-opacity=".425" fill-rule="evenodd" d="M1.012 81.993c-.662.408-1.009 2.556-.827 5.106.312 4.362.353 4.406 4.585 4.971 5.055.675 8.977 3.361 11.73 8.035 1.831 3.109 2.001 5.208 2.014 24.905l.014 21.509 2.791 4.763c3.227 5.506 8.209 9.113 14.865 10.762 8.669 2.147 17.648-2.608 21.263-11.262 1.198-2.867 1.553-7.614 1.553-20.75 0-9.744-.395-17.032-.923-17.032-1.674 0-7.231 5.276-8.177 7.762-.51 1.342-1.139 8.132-1.399 15.089-.468 12.562-.492 12.668-3.502 15.399-5.063 4.594-12.592 3.234-15.451-2.79-1.254-2.643-1.548-7.513-1.548-25.665 0-22.006-.045-22.493-2.549-27.517-2.603-5.224-7.1-9.431-12.133-11.351-4.371-1.667-11.042-2.716-12.306-1.934m62.184 1.904c-2.917 1.008-6.597 3.071-8.177 4.585-3.854 3.692-7.209 11.722-6.825 16.334l.306 3.684 2.169-4.051C52.885 100.309 60.527 92 62.118 92c1.661 0 .882 1.626-2.186 4.563-3.577 3.424-8.467 11.63-9.497 15.937l-.717 3 2.391-2.14c1.315-1.177 4.641-3.269 7.391-4.651 8.312-4.175 12.941-11.103 14.12-21.135L74.275 82l-2.887.033c-1.589.018-5.275.857-8.192 1.864m-13.929 2.217c-4.703 1.359-10.861 7.645-12.132 12.386-1.082 4.038-1.748 51.221-.736 52.232 1.325 1.326 6.539-2.117 7.536-4.976.631-1.808 1.065-12.187 1.065-25.445 0-20.721.155-22.695 2.085-26.477 1.146-2.248 3.237-5.155 4.646-6.46 2.76-2.558 2.496-2.693-2.464-1.26M.341 100.554c-.328.855-.393 11.543-.144 23.75.397 19.474.699 22.749 2.466 26.707 2.553 5.72 7.58 10.767 13.204 13.254 5.123 2.266 20.894 3.776 19.728 1.888-.392-.634-1.826-1.153-3.186-1.153-6.064 0-14.795-6.178-18.026-12.756-1.59-3.236-1.857-6.528-1.964-24.244-.078-12.762-.555-21.556-1.265-23.298-.686-1.681-2.529-3.378-4.616-4.25-4.407-1.842-5.458-1.824-6.197.102"/><path fill="#1976D2" fill-opacity=".315" fill-rule="evenodd" d="M1 86.412c0 4.336.066 4.423 3.834 5.06 5.78.977 10.048 4.054 12.202 8.799 1.693 3.73 1.923 6.683 1.942 25.019.02 18.635.225 21.187 1.978 24.624 7.352 14.411 27.157 16.255 34.808 3.24 2.65-4.508 2.746-5.196 3.069-21.904.373-19.38.143-19.915-5.887-13.696l-3.446 3.555-.5 14.033c-.494 13.869-.533 14.061-3.306 16.445-3.88 3.337-10.506 3.338-14.388.002l-2.806-2.411-.515-24.839c-.479-23.147-.665-25.122-2.721-28.992C21.363 88.002 11.494 82 3.318 82 1.244 82 1 82.465 1 86.412m.172 37.919.328 24.332 3.029 4.918c4.181 6.789 10.659 10.933 19.394 12.406 8.56 1.444 12.44.874 6.077-.892-6.387-1.773-11.698-5.725-14.813-11.025-2.649-4.505-2.694-4.887-3.187-26.909l-.5-22.339-2.806-2.411C7.151 101.085 4.753 100 3.366 100H.844z"/></svg>